<?xml version="1.0" encoding="utf-8"?>
<!-- Generator: Adobe Illustrator 17.0.0, SVG Export Plug-In . SVG Version: 6.00 Build 0)  -->
<!DOCTYPE svg PUBLIC "-//W3C//DTD SVG 1.1//EN" "http://www.w3.org/Graphics/SVG/1.1/DTD/svg11.dtd">
<svg version="1.1" xmlns="http://www.w3.org/2000/svg" xmlns:xlink="http://www.w3.org/1999/xlink" x="0px" y="0px"
	 width="841.89px" height="595.28px" viewBox="0 0 841.89 595.28" enable-background="new 0 0 841.89 595.28" xml:space="preserve">
<g id="Capa_2" display="none">
	
		<rect x="718.327" y="51.303" display="inline" fill="none" stroke="#000000" stroke-width="0.5" stroke-miterlimit="10" width="49.564" height="49.267"/>
	
		<rect x="668.764" y="51.303" display="inline" fill="none" stroke="#000000" stroke-width="0.5" stroke-miterlimit="10" width="49.564" height="49.267"/>
	
		<rect x="619.2" y="51.303" display="inline" fill="none" stroke="#000000" stroke-width="0.5" stroke-miterlimit="10" width="49.564" height="49.267"/>
	
		<rect x="569.636" y="51.303" display="inline" fill="none" stroke="#000000" stroke-width="0.5" stroke-miterlimit="10" width="49.564" height="49.267"/>
	
		<rect x="520.072" y="51.303" display="inline" fill="none" stroke="#000000" stroke-width="0.5" stroke-miterlimit="10" width="49.564" height="49.267"/>
	
		<rect x="470.509" y="51.303" display="inline" fill="none" stroke="#000000" stroke-width="0.5" stroke-miterlimit="10" width="49.564" height="49.267"/>
	
		<rect x="420.945" y="51.303" display="inline" fill="none" stroke="#000000" stroke-width="0.5" stroke-miterlimit="10" width="49.564" height="49.267"/>
	
		<rect x="371.381" y="51.303" display="inline" fill="none" stroke="#000000" stroke-width="0.5" stroke-miterlimit="10" width="49.564" height="49.267"/>
	
		<rect x="321.818" y="51.303" display="inline" fill="none" stroke="#000000" stroke-width="0.5" stroke-miterlimit="10" width="49.564" height="49.267"/>
	
		<rect x="272.254" y="51.303" display="inline" fill="none" stroke="#000000" stroke-width="0.5" stroke-miterlimit="10" width="49.564" height="49.267"/>
	
		<rect x="222.69" y="51.303" display="inline" fill="none" stroke="#000000" stroke-width="0.5" stroke-miterlimit="10" width="49.564" height="49.267"/>
	
		<rect x="173.126" y="51.303" display="inline" fill="none" stroke="#000000" stroke-width="0.5" stroke-miterlimit="10" width="49.564" height="49.267"/>
	
		<rect x="123.563" y="51.303" display="inline" fill="none" stroke="#000000" stroke-width="0.5" stroke-miterlimit="10" width="49.564" height="49.267"/>
	
		<rect x="73.999" y="51.303" display="inline" fill="none" stroke="#000000" stroke-width="0.5" stroke-miterlimit="10" width="49.564" height="49.267"/>
	
		<rect x="718.327" y="100.57" display="inline" fill="none" stroke="#000000" stroke-width="0.5" stroke-miterlimit="10" width="49.564" height="49.267"/>
	
		<rect x="668.764" y="100.57" display="inline" fill="none" stroke="#000000" stroke-width="0.5" stroke-miterlimit="10" width="49.564" height="49.267"/>
	
		<rect x="619.2" y="100.57" display="inline" fill="none" stroke="#000000" stroke-width="0.5" stroke-miterlimit="10" width="49.564" height="49.267"/>
	
		<rect x="569.636" y="100.57" display="inline" fill="none" stroke="#000000" stroke-width="0.5" stroke-miterlimit="10" width="49.564" height="49.267"/>
	
		<rect x="520.072" y="100.57" display="inline" fill="none" stroke="#000000" stroke-width="0.5" stroke-miterlimit="10" width="49.564" height="49.267"/>
	
		<rect x="470.509" y="100.57" display="inline" fill="none" stroke="#000000" stroke-width="0.5" stroke-miterlimit="10" width="49.564" height="49.267"/>
	
		<rect x="420.945" y="100.57" display="inline" fill="none" stroke="#000000" stroke-width="0.5" stroke-miterlimit="10" width="49.564" height="49.267"/>
	
		<rect x="371.381" y="100.57" display="inline" fill="none" stroke="#000000" stroke-width="0.5" stroke-miterlimit="10" width="49.564" height="49.267"/>
	
		<rect x="321.818" y="100.57" display="inline" fill="none" stroke="#000000" stroke-width="0.5" stroke-miterlimit="10" width="49.564" height="49.267"/>
	
		<rect x="272.254" y="100.57" display="inline" fill="none" stroke="#000000" stroke-width="0.5" stroke-miterlimit="10" width="49.564" height="49.267"/>
	
		<rect x="222.69" y="100.57" display="inline" fill="none" stroke="#000000" stroke-width="0.5" stroke-miterlimit="10" width="49.564" height="49.267"/>
	
		<rect x="173.126" y="100.57" display="inline" fill="none" stroke="#000000" stroke-width="0.5" stroke-miterlimit="10" width="49.564" height="49.267"/>
	
		<rect x="123.563" y="100.57" display="inline" fill="none" stroke="#000000" stroke-width="0.5" stroke-miterlimit="10" width="49.564" height="49.267"/>
	
		<rect x="73.999" y="100.57" display="inline" fill="none" stroke="#000000" stroke-width="0.5" stroke-miterlimit="10" width="49.564" height="49.267"/>
	
		<rect x="718.327" y="149.838" display="inline" fill="none" stroke="#000000" stroke-width="0.5" stroke-miterlimit="10" width="49.564" height="49.267"/>
	
		<rect x="668.764" y="149.838" display="inline" fill="none" stroke="#000000" stroke-width="0.5" stroke-miterlimit="10" width="49.564" height="49.267"/>
	
		<rect x="619.2" y="149.838" display="inline" fill="none" stroke="#000000" stroke-width="0.5" stroke-miterlimit="10" width="49.564" height="49.267"/>
	
		<rect x="569.636" y="149.838" display="inline" fill="none" stroke="#000000" stroke-width="0.5" stroke-miterlimit="10" width="49.564" height="49.267"/>
	
		<rect x="520.072" y="149.838" display="inline" fill="none" stroke="#000000" stroke-width="0.5" stroke-miterlimit="10" width="49.564" height="49.267"/>
	
		<rect x="470.509" y="149.838" display="inline" fill="none" stroke="#000000" stroke-width="0.5" stroke-miterlimit="10" width="49.564" height="49.267"/>
	
		<rect x="420.945" y="149.838" display="inline" fill="none" stroke="#000000" stroke-width="0.5" stroke-miterlimit="10" width="49.564" height="49.267"/>
	
		<rect x="371.381" y="149.838" display="inline" fill="none" stroke="#000000" stroke-width="0.5" stroke-miterlimit="10" width="49.564" height="49.267"/>
	
		<rect x="321.818" y="149.838" display="inline" fill="none" stroke="#000000" stroke-width="0.5" stroke-miterlimit="10" width="49.564" height="49.267"/>
	
		<rect x="272.254" y="149.838" display="inline" fill="none" stroke="#000000" stroke-width="0.5" stroke-miterlimit="10" width="49.564" height="49.267"/>
	
		<rect x="222.69" y="149.838" display="inline" fill="none" stroke="#000000" stroke-width="0.5" stroke-miterlimit="10" width="49.564" height="49.267"/>
	
		<rect x="173.126" y="149.838" display="inline" fill="none" stroke="#000000" stroke-width="0.5" stroke-miterlimit="10" width="49.564" height="49.267"/>
	
		<rect x="123.563" y="149.838" display="inline" fill="none" stroke="#000000" stroke-width="0.5" stroke-miterlimit="10" width="49.564" height="49.267"/>
	
		<rect x="73.999" y="149.838" display="inline" fill="none" stroke="#000000" stroke-width="0.5" stroke-miterlimit="10" width="49.564" height="49.267"/>
	
		<rect x="718.327" y="199.105" display="inline" fill="none" stroke="#000000" stroke-width="0.5" stroke-miterlimit="10" width="49.564" height="49.267"/>
	
		<rect x="668.764" y="199.105" display="inline" fill="none" stroke="#000000" stroke-width="0.5" stroke-miterlimit="10" width="49.564" height="49.267"/>
	
		<rect x="619.2" y="199.105" display="inline" fill="none" stroke="#000000" stroke-width="0.5" stroke-miterlimit="10" width="49.564" height="49.267"/>
	
		<rect x="569.636" y="199.105" display="inline" fill="none" stroke="#000000" stroke-width="0.5" stroke-miterlimit="10" width="49.564" height="49.267"/>
	
		<rect x="520.072" y="199.105" display="inline" fill="none" stroke="#000000" stroke-width="0.5" stroke-miterlimit="10" width="49.564" height="49.267"/>
	
		<rect x="470.509" y="199.105" display="inline" fill="none" stroke="#000000" stroke-width="0.5" stroke-miterlimit="10" width="49.564" height="49.267"/>
	
		<rect x="420.945" y="199.105" display="inline" fill="none" stroke="#000000" stroke-width="0.5" stroke-miterlimit="10" width="49.564" height="49.267"/>
	
		<rect x="371.381" y="199.105" display="inline" fill="none" stroke="#000000" stroke-width="0.5" stroke-miterlimit="10" width="49.564" height="49.267"/>
	
		<rect x="321.818" y="199.105" display="inline" fill="none" stroke="#000000" stroke-width="0.5" stroke-miterlimit="10" width="49.564" height="49.267"/>
	
		<rect x="272.254" y="199.105" display="inline" fill="none" stroke="#000000" stroke-width="0.5" stroke-miterlimit="10" width="49.564" height="49.267"/>
	
		<rect x="222.69" y="199.105" display="inline" fill="none" stroke="#000000" stroke-width="0.5" stroke-miterlimit="10" width="49.564" height="49.267"/>
	
		<rect x="173.126" y="199.105" display="inline" fill="none" stroke="#000000" stroke-width="0.5" stroke-miterlimit="10" width="49.564" height="49.267"/>
	
		<rect x="123.563" y="199.105" display="inline" fill="none" stroke="#000000" stroke-width="0.5" stroke-miterlimit="10" width="49.564" height="49.267"/>
	
		<rect x="73.999" y="199.105" display="inline" fill="none" stroke="#000000" stroke-width="0.5" stroke-miterlimit="10" width="49.564" height="49.267"/>
	
		<rect x="718.327" y="248.373" display="inline" fill="none" stroke="#000000" stroke-width="0.5" stroke-miterlimit="10" width="49.564" height="49.267"/>
	
		<rect x="668.764" y="248.373" display="inline" fill="none" stroke="#000000" stroke-width="0.5" stroke-miterlimit="10" width="49.564" height="49.267"/>
	
		<rect x="619.2" y="248.373" display="inline" fill="none" stroke="#000000" stroke-width="0.5" stroke-miterlimit="10" width="49.564" height="49.267"/>
	
		<rect x="569.636" y="248.373" display="inline" fill="none" stroke="#000000" stroke-width="0.5" stroke-miterlimit="10" width="49.564" height="49.267"/>
	
		<rect x="520.072" y="248.373" display="inline" fill="none" stroke="#000000" stroke-width="0.5" stroke-miterlimit="10" width="49.564" height="49.267"/>
	
		<rect x="470.509" y="248.373" display="inline" fill="none" stroke="#000000" stroke-width="0.5" stroke-miterlimit="10" width="49.564" height="49.267"/>
	
		<rect x="420.945" y="248.373" display="inline" fill="none" stroke="#000000" stroke-width="0.5" stroke-miterlimit="10" width="49.564" height="49.267"/>
	
		<rect x="371.381" y="248.373" display="inline" fill="none" stroke="#000000" stroke-width="0.5" stroke-miterlimit="10" width="49.564" height="49.267"/>
	
		<rect x="321.818" y="248.373" display="inline" fill="none" stroke="#000000" stroke-width="0.5" stroke-miterlimit="10" width="49.564" height="49.267"/>
	
		<rect x="272.254" y="248.373" display="inline" fill="none" stroke="#000000" stroke-width="0.5" stroke-miterlimit="10" width="49.564" height="49.267"/>
	
		<rect x="222.69" y="248.373" display="inline" fill="none" stroke="#000000" stroke-width="0.5" stroke-miterlimit="10" width="49.564" height="49.267"/>
	
		<rect x="173.126" y="248.373" display="inline" fill="none" stroke="#000000" stroke-width="0.5" stroke-miterlimit="10" width="49.564" height="49.267"/>
	
		<rect x="123.563" y="248.373" display="inline" fill="none" stroke="#000000" stroke-width="0.5" stroke-miterlimit="10" width="49.564" height="49.267"/>
	
		<rect x="73.999" y="248.373" display="inline" fill="none" stroke="#000000" stroke-width="0.5" stroke-miterlimit="10" width="49.564" height="49.267"/>
	
		<rect x="718.327" y="297.64" display="inline" fill="none" stroke="#000000" stroke-width="0.5" stroke-miterlimit="10" width="49.564" height="49.267"/>
	
		<rect x="668.764" y="297.64" display="inline" fill="none" stroke="#000000" stroke-width="0.5" stroke-miterlimit="10" width="49.564" height="49.267"/>
	
		<rect x="619.2" y="297.64" display="inline" fill="none" stroke="#000000" stroke-width="0.5" stroke-miterlimit="10" width="49.564" height="49.267"/>
	
		<rect x="569.636" y="297.64" display="inline" fill="none" stroke="#000000" stroke-width="0.5" stroke-miterlimit="10" width="49.564" height="49.267"/>
	
		<rect x="520.072" y="297.64" display="inline" fill="none" stroke="#000000" stroke-width="0.5" stroke-miterlimit="10" width="49.564" height="49.267"/>
	
		<rect x="470.509" y="297.64" display="inline" fill="none" stroke="#000000" stroke-width="0.5" stroke-miterlimit="10" width="49.564" height="49.267"/>
	
		<rect x="420.945" y="297.64" display="inline" fill="none" stroke="#000000" stroke-width="0.5" stroke-miterlimit="10" width="49.564" height="49.267"/>
	
		<rect x="371.381" y="297.64" display="inline" fill="none" stroke="#000000" stroke-width="0.5" stroke-miterlimit="10" width="49.564" height="49.267"/>
	
		<rect x="321.818" y="297.64" display="inline" fill="none" stroke="#000000" stroke-width="0.5" stroke-miterlimit="10" width="49.564" height="49.267"/>
	
		<rect x="272.254" y="297.64" display="inline" fill="none" stroke="#000000" stroke-width="0.5" stroke-miterlimit="10" width="49.564" height="49.267"/>
	
		<rect x="222.69" y="297.64" display="inline" fill="none" stroke="#000000" stroke-width="0.5" stroke-miterlimit="10" width="49.564" height="49.267"/>
	
		<rect x="173.126" y="297.64" display="inline" fill="none" stroke="#000000" stroke-width="0.5" stroke-miterlimit="10" width="49.564" height="49.267"/>
	
		<rect x="123.563" y="297.64" display="inline" fill="none" stroke="#000000" stroke-width="0.5" stroke-miterlimit="10" width="49.564" height="49.267"/>
	
		<rect x="73.999" y="297.64" display="inline" fill="none" stroke="#000000" stroke-width="0.5" stroke-miterlimit="10" width="49.564" height="49.267"/>
	
		<rect x="718.327" y="346.907" display="inline" fill="none" stroke="#000000" stroke-width="0.5" stroke-miterlimit="10" width="49.564" height="49.267"/>
	
		<rect x="668.764" y="346.907" display="inline" fill="none" stroke="#000000" stroke-width="0.5" stroke-miterlimit="10" width="49.564" height="49.267"/>
	
		<rect x="619.2" y="346.907" display="inline" fill="none" stroke="#000000" stroke-width="0.5" stroke-miterlimit="10" width="49.564" height="49.267"/>
	
		<rect x="569.636" y="346.907" display="inline" fill="none" stroke="#000000" stroke-width="0.5" stroke-miterlimit="10" width="49.564" height="49.267"/>
	
		<rect x="520.072" y="346.907" display="inline" fill="none" stroke="#000000" stroke-width="0.5" stroke-miterlimit="10" width="49.564" height="49.267"/>
	
		<rect x="470.509" y="346.907" display="inline" fill="none" stroke="#000000" stroke-width="0.5" stroke-miterlimit="10" width="49.564" height="49.267"/>
	
		<rect x="420.945" y="346.907" display="inline" fill="none" stroke="#000000" stroke-width="0.5" stroke-miterlimit="10" width="49.564" height="49.267"/>
	
		<rect x="371.381" y="346.907" display="inline" fill="none" stroke="#000000" stroke-width="0.5" stroke-miterlimit="10" width="49.564" height="49.267"/>
	
		<rect x="321.818" y="346.907" display="inline" fill="none" stroke="#000000" stroke-width="0.5" stroke-miterlimit="10" width="49.564" height="49.267"/>
	
		<rect x="272.254" y="346.907" display="inline" fill="none" stroke="#000000" stroke-width="0.5" stroke-miterlimit="10" width="49.564" height="49.267"/>
	
		<rect x="222.69" y="346.907" display="inline" fill="none" stroke="#000000" stroke-width="0.5" stroke-miterlimit="10" width="49.564" height="49.267"/>
	
		<rect x="173.126" y="346.907" display="inline" fill="none" stroke="#000000" stroke-width="0.5" stroke-miterlimit="10" width="49.564" height="49.267"/>
	
		<rect x="123.563" y="346.907" display="inline" fill="none" stroke="#000000" stroke-width="0.5" stroke-miterlimit="10" width="49.564" height="49.267"/>
	
		<rect x="73.999" y="346.907" display="inline" fill="none" stroke="#000000" stroke-width="0.5" stroke-miterlimit="10" width="49.564" height="49.267"/>
	
		<rect x="718.327" y="396.175" display="inline" fill="none" stroke="#000000" stroke-width="0.5" stroke-miterlimit="10" width="49.564" height="49.267"/>
	
		<rect x="668.764" y="396.175" display="inline" fill="none" stroke="#000000" stroke-width="0.5" stroke-miterlimit="10" width="49.564" height="49.267"/>
	
		<rect x="619.2" y="396.175" display="inline" fill="none" stroke="#000000" stroke-width="0.5" stroke-miterlimit="10" width="49.564" height="49.267"/>
	
		<rect x="569.636" y="396.175" display="inline" fill="none" stroke="#000000" stroke-width="0.5" stroke-miterlimit="10" width="49.564" height="49.267"/>
	
		<rect x="520.072" y="396.175" display="inline" fill="none" stroke="#000000" stroke-width="0.5" stroke-miterlimit="10" width="49.564" height="49.267"/>
	
		<rect x="470.509" y="396.175" display="inline" fill="none" stroke="#000000" stroke-width="0.5" stroke-miterlimit="10" width="49.564" height="49.267"/>
	
		<rect x="420.945" y="396.175" display="inline" fill="none" stroke="#000000" stroke-width="0.5" stroke-miterlimit="10" width="49.564" height="49.267"/>
	
		<rect x="371.381" y="396.175" display="inline" fill="none" stroke="#000000" stroke-width="0.5" stroke-miterlimit="10" width="49.564" height="49.267"/>
	
		<rect x="321.818" y="396.175" display="inline" fill="none" stroke="#000000" stroke-width="0.5" stroke-miterlimit="10" width="49.564" height="49.267"/>
	
		<rect x="272.254" y="396.175" display="inline" fill="none" stroke="#000000" stroke-width="0.5" stroke-miterlimit="10" width="49.564" height="49.267"/>
	
		<rect x="222.69" y="396.175" display="inline" fill="none" stroke="#000000" stroke-width="0.5" stroke-miterlimit="10" width="49.564" height="49.267"/>
	
		<rect x="173.126" y="396.175" display="inline" fill="none" stroke="#000000" stroke-width="0.5" stroke-miterlimit="10" width="49.564" height="49.267"/>
	
		<rect x="123.563" y="396.175" display="inline" fill="none" stroke="#000000" stroke-width="0.5" stroke-miterlimit="10" width="49.564" height="49.267"/>
	
		<rect x="73.999" y="396.175" display="inline" fill="none" stroke="#000000" stroke-width="0.5" stroke-miterlimit="10" width="49.564" height="49.267"/>
	
		<rect x="718.327" y="445.442" display="inline" fill="none" stroke="#000000" stroke-width="0.5" stroke-miterlimit="10" width="49.564" height="49.267"/>
	
		<rect x="668.764" y="445.442" display="inline" fill="none" stroke="#000000" stroke-width="0.5" stroke-miterlimit="10" width="49.564" height="49.267"/>
	
		<rect x="619.2" y="445.442" display="inline" fill="none" stroke="#000000" stroke-width="0.5" stroke-miterlimit="10" width="49.564" height="49.267"/>
	
		<rect x="569.636" y="445.442" display="inline" fill="none" stroke="#000000" stroke-width="0.5" stroke-miterlimit="10" width="49.564" height="49.267"/>
	
		<rect x="520.072" y="445.442" display="inline" fill="none" stroke="#000000" stroke-width="0.5" stroke-miterlimit="10" width="49.564" height="49.267"/>
	
		<rect x="470.509" y="445.442" display="inline" fill="none" stroke="#000000" stroke-width="0.5" stroke-miterlimit="10" width="49.564" height="49.267"/>
	
		<rect x="420.945" y="445.442" display="inline" fill="none" stroke="#000000" stroke-width="0.5" stroke-miterlimit="10" width="49.564" height="49.267"/>
	
		<rect x="371.381" y="445.442" display="inline" fill="none" stroke="#000000" stroke-width="0.5" stroke-miterlimit="10" width="49.564" height="49.267"/>
	
		<rect x="321.818" y="445.442" display="inline" fill="none" stroke="#000000" stroke-width="0.5" stroke-miterlimit="10" width="49.564" height="49.267"/>
	
		<rect x="272.254" y="445.442" display="inline" fill="none" stroke="#000000" stroke-width="0.5" stroke-miterlimit="10" width="49.564" height="49.267"/>
	
		<rect x="222.69" y="445.442" display="inline" fill="none" stroke="#000000" stroke-width="0.5" stroke-miterlimit="10" width="49.564" height="49.267"/>
	
		<rect x="173.126" y="445.442" display="inline" fill="none" stroke="#000000" stroke-width="0.5" stroke-miterlimit="10" width="49.564" height="49.267"/>
	
		<rect x="123.563" y="445.442" display="inline" fill="none" stroke="#000000" stroke-width="0.5" stroke-miterlimit="10" width="49.564" height="49.267"/>
	
		<rect x="73.999" y="445.442" display="inline" fill="none" stroke="#000000" stroke-width="0.5" stroke-miterlimit="10" width="49.564" height="49.267"/>
	
		<rect x="718.327" y="494.71" display="inline" fill="none" stroke="#000000" stroke-width="0.5" stroke-miterlimit="10" width="49.564" height="49.267"/>
	
		<rect x="668.764" y="494.71" display="inline" fill="none" stroke="#000000" stroke-width="0.5" stroke-miterlimit="10" width="49.564" height="49.267"/>
	
		<rect x="619.2" y="494.71" display="inline" fill="none" stroke="#000000" stroke-width="0.5" stroke-miterlimit="10" width="49.564" height="49.267"/>
	
		<rect x="569.636" y="494.71" display="inline" fill="none" stroke="#000000" stroke-width="0.5" stroke-miterlimit="10" width="49.564" height="49.267"/>
	
		<rect x="520.072" y="494.71" display="inline" fill="none" stroke="#000000" stroke-width="0.5" stroke-miterlimit="10" width="49.564" height="49.267"/>
	
		<rect x="470.509" y="494.71" display="inline" fill="none" stroke="#000000" stroke-width="0.5" stroke-miterlimit="10" width="49.564" height="49.267"/>
	
		<rect x="420.945" y="494.71" display="inline" fill="none" stroke="#000000" stroke-width="0.5" stroke-miterlimit="10" width="49.564" height="49.267"/>
	
		<rect x="371.381" y="494.71" display="inline" fill="none" stroke="#000000" stroke-width="0.5" stroke-miterlimit="10" width="49.564" height="49.267"/>
	
		<rect x="321.818" y="494.71" display="inline" fill="none" stroke="#000000" stroke-width="0.5" stroke-miterlimit="10" width="49.564" height="49.267"/>
	
		<rect x="272.254" y="494.71" display="inline" fill="none" stroke="#000000" stroke-width="0.5" stroke-miterlimit="10" width="49.564" height="49.267"/>
	
		<rect x="222.69" y="494.71" display="inline" fill="none" stroke="#000000" stroke-width="0.5" stroke-miterlimit="10" width="49.564" height="49.267"/>
	
		<rect x="173.126" y="494.71" display="inline" fill="none" stroke="#000000" stroke-width="0.5" stroke-miterlimit="10" width="49.564" height="49.267"/>
	
		<rect x="123.563" y="494.71" display="inline" fill="none" stroke="#000000" stroke-width="0.5" stroke-miterlimit="10" width="49.564" height="49.267"/>
	
		<rect x="73.999" y="494.71" display="inline" fill="none" stroke="#000000" stroke-width="0.5" stroke-miterlimit="10" width="49.564" height="49.267"/>
</g>
<g id="Capa_3" display="none">
	<rect display="inline" fill="#FFFFFF" stroke="#000000" stroke-miterlimit="10" width="841.89" height="595.28"/>
</g>
<g id="Capa_5" display="none">
	<g display="inline">
		<path fill="#1A1E25" d="M422.543,225.597h-9.694c0-45.207-36.783-81.987-81.997-81.987s-81.997,36.779-81.997,81.987h-9.694
			c0-50.553,41.133-91.681,91.691-91.681S422.543,175.044,422.543,225.597z"/>
	</g>
	<g display="inline">
		<path fill="#1A1E25" d="M330.899,297.886v-9.694c34.536,0,62.634-28.069,62.634-62.571s-28.097-62.571-62.634-62.571v-9.694
			c39.882,0,72.328,32.418,72.328,72.265S370.781,297.886,330.899,297.886z"/>
	</g>
	<g display="inline">
		<path fill="#1A1E25" d="M330.908,278.624c-29.242,0-53.032-23.757-53.032-52.958h9.694c0,23.856,19.441,43.264,43.338,43.264
			c23.896,0,43.338-19.408,43.338-43.264h9.694C383.94,254.867,360.15,278.624,330.908,278.624z"/>
	</g>
	<g display="inline">
		<path fill="#1A1E25" d="M330.899,259.286c-18.584,0-33.703-15.09-33.703-33.639s15.119-33.639,33.703-33.639v9.694
			c-13.238,0-24.008,10.742-24.008,23.945s10.77,23.945,24.008,23.945V259.286z"/>
	</g>
	<g display="inline">
		<ellipse fill="#C9002C" cx="330.912" cy="225.634" rx="14.301" ry="14.255"/>
	</g>
	<g display="inline">
		<path fill="#1A1E25" d="M330.823,336.638c-61.249,0-111.08-49.819-111.08-111.054s49.83-111.054,111.08-111.054v9.694
			c-55.904,0-101.385,45.47-101.385,101.36s45.481,101.36,101.385,101.36V336.638z"/>
	</g>
</g>
<g id="Capa_6" display="none">
	<g display="inline">
		<path fill="#1A1E25" d="M159.721,114.562c2.648,0,4.923,0.869,6.826,2.606c1.958,1.793,2.937,3.945,2.937,6.454v48.362
			c0,2.51-0.979,4.648-2.937,6.412c-1.903,1.765-4.178,2.648-6.826,2.648h-19.403c-2.648,0-4.937-0.883-6.867-2.648
			c-1.931-1.764-2.896-3.903-2.896-6.412v-48.362c0-2.509,0.965-4.66,2.896-6.454c1.931-1.738,4.22-2.606,6.867-2.606H159.721z
			 M143.752,126.849v41.908h12.494v-41.908H143.752z M144.083,111.831l4.633-12.825h13.197l-8.688,12.825H144.083z"/>
	</g>
	<g display="inline">
		<path fill="#1A1E25" d="M194.012,157.339v23.705h-13.197v-66.482h29.166c2.648,0,4.923,0.869,6.826,2.606
			c1.958,1.793,2.937,3.945,2.937,6.454v17.127c0,4.358-1.696,7.833-5.089,10.425c3.392,2.593,5.089,6.096,5.089,10.508v19.361
			h-13.238v-19.361c0-1.214-0.469-2.248-1.407-3.103c-0.938-0.827-2.041-1.241-3.31-1.241H194.012z M201.789,145.052
			c1.269,0,2.372-0.427,3.31-1.282c0.938-0.8,1.407-1.806,1.407-3.02v-13.9h-12.494v18.203H201.789z"/>
	</g>
	<g display="inline">
		<path fill="#1A1E25" d="M130.555,192.374h27.47c2.675,0,4.978,0.869,6.909,2.606c1.958,1.793,2.937,3.945,2.937,6.454v13.735
			c0,3.999-1.448,7.267-4.344,9.805c3.972,2.621,5.957,6.316,5.957,11.087v6.164c0,5.075-1.944,9.17-5.833,12.287
			c-3.641,2.896-8.191,4.344-13.652,4.344h-19.444V192.374z M143.752,204.661v14.769h6.081c1.296,0,2.413-0.399,3.351-1.2
			c0.965-0.883,1.448-1.903,1.448-3.061v-10.508H143.752z M143.752,246.569h6.247c4.165,0,6.247-1.448,6.247-4.344v-6.164
			c0-1.214-0.469-2.234-1.407-3.061s-2.041-1.241-3.31-1.241h-7.778V246.569z"/>
	</g>
	<g display="inline">
		<path fill="#1A1E25" d="M180.815,258.856v-66.482h13.197v66.482H180.815z"/>
	</g>
	<g display="inline">
		<path fill="#1A1E25" d="M143.463,282.472h-12.908v-12.287h38.929v12.287h-12.866v54.195h-13.156V282.472z"/>
	</g>
	<g display="inline">
		<path fill="#1A1E25" d="M183.99,323.181l-2.689,13.487h-13.363l12.908-66.482h17.541l12.866,66.482H197.85l-2.606-13.487H183.99z
			 M186.39,310.894h6.412l-3.227-28.339L186.39,310.894z"/>
	</g>
	<g display="inline">
		<path fill="#C9002C" d="M100.852,318.932c-1.445,1.625-2.228,3.854-2.228,5.991c0,5.087,4.245,8.971,9.272,8.971
			c4.968,0,9.212-3.854,9.212-8.911c0-2.228-0.843-4.365-2.348-6.051h3.342c1.023,1.746,1.596,3.974,1.596,5.961
			c0,6.473-5.148,11.831-11.711,11.831c-6.713,0-11.952-5.389-11.952-12.072c0-1.987,0.481-4.004,1.535-5.72H100.852z"/>
		<path fill="#C9002C" d="M105.127,295.216h7.797c2.258,0,4.245-0.571,4.245-3.251s-1.987-3.251-4.245-3.251h-7.797v-2.71h8.098
			c3.854,0,6.473,1.807,6.473,5.961s-2.62,5.961-6.473,5.961h-8.098V295.216z"/>
		<path fill="#C9002C" d="M119.217,261.505v2.709H93.085v-2.709H119.217z"/>
		<path fill="#C9002C" d="M119.217,236.492v2.71h-11.561v1.475h-2.529v-1.475h-5.389v-2.71h5.389v-2.649h2.529v2.649H119.217z"/>
		<path fill="#C9002C" d="M105.127,211.719h7.797c2.258,0,4.245-0.571,4.245-3.251s-1.987-3.251-4.245-3.251h-7.797v-2.71h8.098
			c3.854,0,6.473,1.807,6.473,5.961s-2.62,5.961-6.473,5.961h-8.098V211.719z"/>
		<path fill="#C9002C" d="M107.415,177.948v-0.09c-1.656-0.663-2.709-2.048-2.709-3.854c0-0.783,0.271-1.565,0.692-2.229
			l2.469,1.234c-0.422,0.482-0.572,1.024-0.572,1.656c0,2.92,2.709,3.281,4.998,3.281h6.924v2.71h-14.089v-2.71H107.415z"/>
		<path fill="#C9002C" d="M119.217,138.996v2.71h-2.198v0.06c1.596,1.084,2.68,2.77,2.68,4.787c0,4.305-3.583,6.743-7.617,6.743
			c-3.854,0-7.375-2.559-7.375-6.653c0-2.077,1.083-3.763,2.77-4.877v-0.06h-2.348v-2.71H119.217z M112.172,141.554
			c-2.739,0-5.058,1.656-5.058,4.576c0,2.8,2.438,4.456,5.058,4.456c2.649,0,5.118-1.596,5.118-4.456
			C117.29,143.18,114.942,141.554,112.172,141.554z"/>
		<path fill="#C9002C" d="M119.217,114.588v2.709H93.085v-2.709H119.217z"/>
	</g>
</g>
<g id="Capa_1">
	<g>
		<path fill="#1A1E25" d="M217.149,85.565c5.832,0,10.844,1.914,15.035,5.741c4.313,3.95,6.47,8.689,6.47,14.215v106.523
			c0,5.528-2.157,10.238-6.47,14.124c-4.192,3.888-9.203,5.832-15.035,5.832h-42.737c-5.832,0-10.874-1.944-15.126-5.832
			c-4.252-3.886-6.379-8.596-6.379-14.124V105.521c0-5.527,2.126-10.265,6.379-14.215c4.252-3.827,9.295-5.741,15.126-5.741H217.149
			z M181.975,112.629v92.308h27.519v-92.308H181.975z M182.704,79.551l10.206-28.248h29.068l-19.136,28.248H182.704z"/>
	</g>
	<g>
		<path fill="#1A1E25" d="M292.678,179.787V232h-29.068V85.565h64.242c5.832,0,10.844,1.914,15.035,5.741
			c4.313,3.95,6.47,8.689,6.47,14.215v37.725c0,9.6-3.736,17.254-11.208,22.963c7.472,5.71,11.208,13.427,11.208,23.145V232h-29.159
			v-42.646c0-2.673-1.033-4.951-3.098-6.834c-2.065-1.822-4.495-2.734-7.29-2.734H292.678z M309.809,152.723
			c2.794,0,5.224-0.942,7.29-2.825c2.065-1.762,3.098-3.978,3.098-6.652v-30.617h-27.519v40.094H309.809z"/>
	</g>
	<g>
		<path fill="#1A1E25" d="M152.907,241.082h60.506c5.893,0,10.965,1.914,15.218,5.741c4.313,3.95,6.47,8.689,6.47,14.215v30.253
			c0,8.809-3.189,16.007-9.568,21.596c8.748,5.773,13.122,13.911,13.122,24.421v13.577c0,11.178-4.283,20.199-12.848,27.064
			c-8.019,6.379-18.042,9.568-30.071,9.568h-42.828V241.082z M181.975,268.146v32.531h13.395c2.855,0,5.316-0.879,7.381-2.643
			c2.126-1.944,3.189-4.192,3.189-6.743v-23.145H181.975z M181.975,360.453h13.76c9.173,0,13.76-3.189,13.76-9.568v-13.577
			c0-2.673-1.033-4.921-3.098-6.743c-2.065-1.822-4.495-2.734-7.29-2.734h-17.131V360.453z"/>
	</g>
	<g>
		<path fill="#1A1E25" d="M263.609,387.517V241.082h29.068v146.435H263.609z"/>
	</g>
	<g>
		<path fill="#1A1E25" d="M181.337,424.595h-28.43v-27.064h85.747v27.064h-28.339v119.371h-28.977V424.595z"/>
	</g>
	<g>
		<path fill="#1A1E25" d="M270.605,514.26l-5.923,29.706h-29.433l28.43-146.435h38.636l28.339,146.435h-29.524l-5.741-29.706
			H270.605z M275.89,487.197h14.124l-7.108-62.419L275.89,487.197z"/>
	</g>
	<g>
		<path fill="#C9002C" d="M90.023,507.269c-2.981,3.354-4.596,7.95-4.596,12.361c0,10.496,8.758,18.508,19.13,18.508
			c10.248,0,19.006-7.95,19.006-18.385c0-4.596-1.74-9.006-4.845-12.484h6.894c2.112,3.603,3.292,8.199,3.292,12.298
			c0,13.353-10.621,24.41-24.161,24.41c-13.85,0-24.658-11.119-24.658-24.906c0-4.1,0.994-8.261,3.168-11.801H90.023z"/>
		<path fill="#C9002C" d="M98.843,458.322h16.086c4.659,0,8.758-1.18,8.758-6.708s-4.099-6.708-8.758-6.708H98.843v-5.59h16.708
			c7.95,0,13.353,3.728,13.353,12.298c0,8.571-5.403,12.298-13.353,12.298H98.843V458.322z"/>
		<path fill="#C9002C" d="M127.911,388.755v5.589H73.999v-5.589H127.911z"/>
		<path fill="#C9002C" d="M127.911,337.14v5.59h-23.85v3.043h-5.217v-3.043H87.725v-5.59h11.117v-5.466h5.217v5.466H127.911z"/>
		<path fill="#C9002C" d="M98.843,286.02h16.086c4.659,0,8.758-1.18,8.758-6.708s-4.099-6.708-8.758-6.708H98.843v-5.59h16.708
			c7.95,0,13.353,3.728,13.353,12.298c0,8.571-5.403,12.298-13.353,12.298H98.843V286.02z"/>
		<path fill="#C9002C" d="M103.563,216.33v-0.187c-3.416-1.366-5.59-4.223-5.59-7.95c0-1.614,0.559-3.23,1.429-4.596l5.092,2.546
			c-0.869,0.994-1.18,2.112-1.18,3.417c0,6.024,5.589,6.77,10.311,6.77h14.285v5.589H98.843v-5.589H103.563z"/>
		<path fill="#C9002C" d="M127.911,135.956v5.59h-4.534v0.124c3.292,2.236,5.528,5.714,5.528,9.876
			c0,8.881-7.391,13.913-15.714,13.913c-7.95,0-15.217-5.28-15.217-13.727c0-4.286,2.237-7.764,5.715-10.062v-0.124h-4.845v-5.59
			H127.911z M113.376,141.235c-5.652,0-10.435,3.416-10.435,9.441c0,5.777,5.031,9.192,10.435,9.192
			c5.466,0,10.559-3.292,10.559-9.192C123.935,144.59,119.091,141.235,113.376,141.235z"/>
		<path fill="#C9002C" d="M127.911,85.58v5.589H73.999V85.58H127.911z"/>
	</g>
</g>
<g id="Capa_4">
	<g>
		<path fill="#1A1E25" d="M767.891,314.714h-20.007c0-93.298-75.913-169.203-169.224-169.203s-169.224,75.905-169.224,169.203
			h-20.007c0-104.331,84.889-189.21,189.231-189.21S767.891,210.383,767.891,314.714z"/>
	</g>
	<g>
		<path fill="#1A1E25" d="M578.758,463.904v-20.007c71.276,0,129.263-57.928,129.263-129.133s-57.987-129.133-129.263-129.133
			v-20.007c82.308,0,149.27,66.904,149.27,149.139S661.066,463.904,578.758,463.904z"/>
	</g>
	<g>
		<path fill="#1A1E25" d="M578.775,424.151c-60.349,0-109.447-49.029-109.447-109.295h20.007c0,49.234,40.123,89.288,89.44,89.288
			s89.44-40.054,89.44-89.288h20.007C688.222,375.122,639.125,424.151,578.775,424.151z"/>
	</g>
	<g>
		<path fill="#1A1E25" d="M578.758,384.242c-38.353,0-69.555-31.143-69.555-69.425s31.202-69.425,69.555-69.425v20.007
			c-27.321,0-49.548,22.169-49.548,49.418c0,27.249,22.228,49.418,49.548,49.418V384.242z"/>
	</g>
	<g>
		<ellipse fill="#C9002C" cx="578.784" cy="314.791" rx="29.515" ry="29.42"/>
	</g>
	<g>
		<path fill="#1A1E25" d="M578.601,543.879c-126.405,0-229.245-102.815-229.245-229.193S452.196,85.494,578.601,85.494v20.007
			c-115.375,0-209.238,93.841-209.238,209.186s93.863,209.186,209.238,209.186V543.879z"/>
	</g>
</g>
</svg>
